<svg xmlns="http://www.w3.org/2000/svg" viewBox="0 0 32 32" width="32" height="32">
  <style>
    .bg { fill: #0B1C2C; }
    .icon { stroke: #CBA961; }
    @media (prefers-color-scheme: dark) {
      .bg { fill: #132A3E; }
      .icon { stroke: #D4B872; }
    }
  </style>
  <rect class="bg" width="32" height="32" rx="6"/>
  <g class="icon" transform="translate(16 16) scale(0.85) translate(-12 -12)" fill="none" stroke-width="2" stroke-linecap="round" stroke-linejoin="round">
    <path d="m16 16 3-8 3 8c-.87.65-1.92 1-3 1s-2.13-.35-3-1Z"/>
    <path d="m2 16 3-8 3 8c-.87.65-1.92 1-3 1s-2.13-.35-3-1Z"/>
    <path d="M7 21h10"/>
    <path d="M12 3v18"/>
    <path d="M3 7h2c2 0 5-1 7-2 2 1 5 2 7 2h2"/>
  </g>
</svg>
